{
    "asset" : {
        "generator" : "Khronos glTF Blender I/O v3.2.43",
        "version" : "2.0"
    },
    "scene" : 0,
    "scenes" : [
        {
            "name" : "Scene",
            "nodes" : [
                0,
                1
            ]
        }
    ],
    "nodes" : [
        {
            "mesh" : 0,
            "name" : "Card_Low",
            "scale" : [
                0.8848673105239868,
                1,
                0.15448015928268433
            ],
            "translation" : [
                0,
                0.5000003576278687,
                0
            ]
        },
        {
            "mesh" : 1,
            "name" : "port",
            "rotation" : [
                0.7071068286895752,
                0,
                0,
                0.7071068286895752
            ],
            "scale" : [
                0.6499999761581421,
                0.6299999952316284,
                0.5799999833106995
            ],
            "translation" : [
                0,
                0.42500001192092896,
                0.07999999821186066
            ]
        }
    ],
    "materials" : [
        {
            "doubleSided" : true,
            "name" : "Material.002",
            "pbrMetallicRoughness" : {
                "baseColorTexture" : {
                    "index" : 0
                },
                "metallicFactor" : 0,
                "roughnessFactor" : 0.5
            }
        },
        {
            "doubleSided" : true,
            "name" : "port",
            "pbrMetallicRoughness" : {
                "baseColorTexture" : {
                    "index" : 1
                },
                "metallicFactor" : 0,
                "roughnessFactor" : 0.5
            }
        }
    ],
    "meshes" : [
        {
            "name" : "Cube.004",
            "primitives" : [
                {
                    "attributes" : {
                        "POSITION" : 0,
                        "NORMAL" : 1,
                        "TEXCOORD_0" : 2
                    },
                    "indices" : 3,
                    "material" : 0
                }
            ]
        },
        {
            "name" : "port",
            "primitives" : [
                {
                    "attributes" : {
                        "POSITION" : 4,
                        "NORMAL" : 5,
                        "TEXCOORD_0" : 6
                    },
                    "indices" : 7,
                    "material" : 1
                }
            ]
        }
    ],
    "textures" : [
        {
            "sampler" : 0,
            "source" : 0
        },
        {
            "sampler" : 1,
            "source" : 1
        }
    ],
    "images" : [
        {
            "bufferView" : 4,
            "mimeType" : "image/jpeg",
            "name" : "Curvature_Material"
        },
        {
            "bufferView" : 9,
            "mimeType" : "image/jpeg",
            "name" : "port"
        }
    ],
    "accessors" : [
        {
            "bufferView" : 0,
            "componentType" : 5126,
            "count" : 579,
            "max" : [
                0.4999999701976776,
                0.5,
                0.4517596960067749
            ],
            "min" : [
                -0.4999999701976776,
                -0.5,
                -0.4517596960067749
            ],
            "type" : "VEC3"
        },
        {
            "bufferView" : 1,
            "componentType" : 5126,
            "count" : 579,
            "type" : "VEC3"
        },
        {
            "bufferView" : 2,
            "componentType" : 5126,
            "count" : 579,
            "type" : "VEC2"
        },
        {
            "bufferView" : 3,
            "componentType" : 5123,
            "count" : 1530,
            "type" : "SCALAR"
        },
        {
            "bufferView" : 5,
            "componentType" : 5126,
            "count" : 4,
            "max" : [
                0.5,
                0,
                0.5
            ],
            "min" : [
                -0.5,
                0,
                -0.5
            ],
            "type" : "VEC3"
        },
        {
            "bufferView" : 6,
            "componentType" : 5126,
            "count" : 4,
            "type" : "VEC3"
        },
        {
            "bufferView" : 7,
            "componentType" : 5126,
            "count" : 4,
            "type" : "VEC2"
        },
        {
            "bufferView" : 8,
            "componentType" : 5123,
            "count" : 6,
            "type" : "SCALAR"
        }
    ],
    "bufferViews" : [
        {
            "buffer" : 0,
            "byteLength" : 6948,
            "byteOffset" : 0
        },
        {
            "buffer" : 0,
            "byteLength" : 6948,
            "byteOffset" : 6948
        },
        {
            "buffer" : 0,
            "byteLength" : 4632,
            "byteOffset" : 13896
        },
        {
            "buffer" : 0,
            "byteLength" : 3060,
            "byteOffset" : 18528
        },
        {
            "buffer" : 0,
            "byteLength" : 669363,
            "byteOffset" : 21588
        },
        {
            "buffer" : 0,
            "byteLength" : 48,
            "byteOffset" : 690952
        },
        {
            "buffer" : 0,
            "byteLength" : 48,
            "byteOffset" : 691000
        },
        {
            "buffer" : 0,
            "byteLength" : 32,
            "byteOffset" : 691048
        },
        {
            "buffer" : 0,
            "byteLength" : 12,
            "byteOffset" : 691080
        },
        {
            "buffer" : 0,
            "byteLength" : 182616,
            "byteOffset" : 691092
        }
    ],
    "samplers" : [
        {
            "magFilter" : 9729,
            "minFilter" : 9987
        },
        {
            "magFilter" : 9729,
            "minFilter" : 9987,
            "wrapS" : 33071,
            "wrapT" : 33071
        }
    ],
    "buffers" : [
        {
            "byteLength" : 873708,
            "uri" : "data:application/octet-stream;base64,"
        }
    ]
}
